<?xml version="1.0" standalone="no"?>
<!DOCTYPE svg PUBLIC "-//W3C//DTD SVG 20010904//EN"
 "http://www.w3.org/TR/2001/REC-SVG-20010904/DTD/svg10.dtd">
<svg version="1.0" xmlns="http://www.w3.org/2000/svg"
 width="936.000000pt" height="936.000000pt" viewBox="0 0 936.000000 936.000000"
 preserveAspectRatio="xMidYMid meet">
<metadata>
Created by potrace 1.14, written by Peter Selinger 2001-2017
</metadata>
<g transform="translate(0.000000,936.000000) scale(0.100000,-0.100000)"
fill="#000000" stroke="none">
<path d="M4398 9045 c-2 -2 -40 -7 -83 -10 -75 -5 -136 -11 -195 -20 -14 -2
-45 -7 -70 -10 -25 -3 -83 -13 -130 -22 -47 -8 -95 -17 -108 -19 -13 -3 -60
-14 -105 -25 -45 -11 -89 -22 -97 -23 -258 -62 -664 -216 -898 -344 -417 -225
-721 -449 -1023 -751 -512 -513 -859 -1105 -1054 -1796 -19 -66 -37 -136 -40
-155 -3 -19 -10 -51 -15 -70 -5 -19 -11 -46 -13 -60 -3 -14 -12 -63 -20 -110
-9 -47 -19 -112 -23 -145 -3 -33 -8 -69 -10 -79 -25 -136 -25 -815 1 -916 2
-8 6 -40 10 -71 3 -31 7 -66 10 -77 2 -11 6 -37 9 -58 28 -177 101 -463 171
-664 197 -566 537 -1103 975 -1539 117 -116 385 -351 400 -351 4 0 7 79 8 176
l0 176 -47 41 c-81 72 -303 300 -377 388 -365 430 -640 953 -777 1479 -32 123
-66 274 -72 325 -3 22 -7 49 -9 61 -4 22 -16 104 -22 164 -25 231 -25 664 1
840 2 14 7 48 10 75 74 560 287 1116 615 1605 62 92 219 298 278 364 257 286
488 489 782 687 52 35 104 69 115 75 11 6 60 34 109 63 99 58 250 136 341 176
79 36 306 126 325 130 8 2 28 8 44 15 43 16 257 78 293 85 18 3 42 9 55 14 13
5 26 9 31 9 4 0 31 6 60 12 30 6 67 13 83 16 16 2 52 9 79 14 55 10 90 15 180
25 33 4 74 9 90 11 232 29 667 21 935 -17 862 -121 1638 -503 2245 -1105 420
-417 738 -924 925 -1474 23 -68 43 -128 44 -134 1 -6 10 -38 20 -71 10 -33 19
-67 21 -75 2 -8 13 -58 25 -110 23 -105 45 -225 55 -310 4 -30 8 -57 10 -60 2
-3 7 -52 12 -110 15 -190 8 -678 -11 -775 -2 -11 -7 -45 -11 -75 -9 -74 -15
-112 -20 -130 -2 -8 -7 -35 -10 -60 -4 -24 -8 -47 -10 -51 -2 -3 -7 -21 -10
-40 -3 -19 -11 -52 -16 -74 -6 -22 -13 -48 -14 -57 -7 -37 -48 -177 -72 -248
-109 -323 -244 -603 -428 -885 -55 -86 -191 -274 -204 -285 -4 -3 -35 -41 -71
-85 -35 -44 -147 -163 -249 -265 l-186 -184 0 -177 0 -177 65 51 c36 29 70 56
76 62 6 5 42 37 80 70 78 68 296 285 363 360 24 28 78 93 120 145 42 52 79 97
82 100 20 18 269 392 269 405 0 3 17 33 38 67 56 93 163 313 217 448 14 36 30
74 35 85 22 48 102 301 134 425 32 123 77 349 91 460 15 119 25 219 31 303 4
73 4 442 -1 507 -7 95 -15 186 -20 215 -3 17 -7 50 -10 75 -9 69 -33 208 -50
285 -8 39 -17 79 -19 90 -24 121 -111 398 -178 565 -170 419 -385 776 -682
1130 -82 98 -326 347 -431 439 -70 62 -296 239 -340 267 -16 10 -32 21 -35 24
-14 15 -192 127 -301 190 -350 201 -823 385 -1164 455 -17 3 -39 8 -50 10 -52
12 -78 17 -190 36 -66 11 -130 22 -142 24 -12 2 -57 7 -100 10 -43 4 -89 9
-103 12 -32 6 -646 13 -652 8z"/>
<path d="M4517 8554 c-1 -1 -47 -5 -102 -8 -55 -3 -114 -8 -130 -10 -17 -3
-50 -7 -75 -10 -141 -18 -172 -24 -392 -71 -83 -18 -348 -97 -408 -122 -8 -3
-17 -7 -20 -7 -26 -6 -203 -82 -316 -137 -225 -109 -400 -215 -604 -367 -63
-47 -117 -88 -120 -92 -3 -3 -41 -36 -85 -74 -340 -295 -646 -688 -844 -1086
-18 -36 -39 -76 -46 -90 -68 -128 -203 -521 -241 -703 -15 -69 -25 -125 -29
-147 -1 -14 -8 -54 -15 -90 -6 -36 -13 -83 -16 -105 -2 -22 -6 -66 -10 -98
-12 -109 -13 -142 -13 -337 1 -222 2 -251 24 -435 4 -30 30 -195 40 -250 5
-23 30 -131 50 -215 96 -392 364 -928 629 -1257 151 -188 382 -426 521 -538
39 -31 79 -64 90 -73 85 -71 257 -189 402 -275 379 -225 823 -387 1253 -457
41 -7 83 -14 92 -16 9 -1 48 -6 85 -9 37 -4 79 -9 93 -12 41 -9 580 -12 655
-3 39 4 99 11 135 14 126 13 317 48 470 87 567 144 1069 406 1509 788 603 523
1016 1247 1160 2032 11 58 23 134 26 170 4 35 8 78 11 94 23 179 22 570 -1
730 -2 17 -7 53 -10 80 -12 99 -16 120 -36 219 -105 526 -316 998 -639 1431
-233 313 -559 620 -895 841 -432 285 -953 490 -1425 559 -19 3 -44 7 -55 10
-11 2 -42 7 -70 10 -27 3 -63 8 -80 10 -101 13 -557 29 -568 19z"/>
<path d="M8 4999 c-10 -6 -5 -309 6 -394 2 -16 7 -61 10 -100 4 -38 9 -81 11
-95 2 -14 7 -45 10 -70 3 -25 10 -70 15 -100 5 -30 12 -68 14 -85 22 -126 82
-381 118 -495 66 -213 182 -523 223 -600 8 -14 27 -55 44 -92 28 -62 111 -219
176 -332 76 -134 205 -327 328 -491 53 -71 87 -112 187 -229 102 -120 285
-305 410 -416 47 -41 87 -77 90 -80 3 -3 30 -25 60 -50 30 -25 57 -47 60 -50
14 -17 250 -186 350 -252 393 -259 847 -465 1305 -593 176 -49 430 -103 560
-120 28 -4 61 -9 75 -11 14 -2 52 -6 85 -10 33 -3 74 -8 90 -10 76 -9 305 -18
450 -18 224 0 379 9 580 35 44 5 94 11 110 13 17 2 69 11 115 20 47 8 101 18
120 21 19 3 51 10 70 15 19 5 46 11 60 14 144 28 483 135 685 216 154 62 497
231 610 300 44 27 87 53 95 57 55 26 373 250 475 334 376 312 652 607 906 969
52 74 112 164 134 200 21 36 44 72 50 80 19 23 88 150 168 310 89 177 125 257
172 380 20 52 42 111 50 130 27 67 126 392 139 456 3 10 10 42 16 69 13 57 18
80 25 115 3 14 7 36 10 50 4 14 8 34 9 45 2 11 9 52 16 90 6 39 14 88 16 110
3 22 7 50 9 63 2 13 7 53 10 90 4 37 8 78 11 92 9 55 16 420 8 421 -44 4 -338
3 -344 -1 -4 -3 -10 -75 -14 -160 -8 -193 -17 -311 -31 -400 -2 -14 -7 -45
-10 -70 -21 -151 -72 -387 -120 -555 -146 -509 -364 -954 -674 -1380 -73 -100
-66 -91 -182 -230 -376 -452 -853 -825 -1399 -1096 -308 -153 -685 -284 -981
-343 -13 -2 -69 -13 -124 -24 -55 -11 -125 -23 -155 -27 -30 -3 -62 -8 -70
-10 -8 -2 -40 -6 -70 -9 -113 -11 -189 -18 -236 -21 -63 -5 -443 -6 -514 -1
-123 8 -316 28 -390 41 -14 3 -45 8 -70 11 -25 3 -76 13 -115 21 -38 8 -81 17
-95 19 -14 3 -43 10 -65 16 -22 5 -48 12 -59 14 -36 7 -201 55 -311 91 -259
84 -566 222 -808 365 -59 35 -115 68 -125 73 -107 62 -341 235 -507 374 -87
73 -354 334 -426 416 -404 463 -692 962 -880 1525 -34 103 -111 385 -123 450
-2 14 -11 62 -20 108 -19 101 -43 264 -51 352 -3 36 -8 85 -11 110 -3 25 -7
110 -9 189 -3 79 -7 146 -10 149 -7 8 -335 8 -347 1z"/>
</g>
</svg>
